<?xml version="1.0" encoding="utf-8"?>
<!-- Generator: Adobe Illustrator 16.0.0, SVG Export Plug-In . SVG Version: 6.00 Build 0)  -->
<!DOCTYPE svg PUBLIC "-//W3C//DTD SVG 1.1//EN" "http://www.w3.org/Graphics/SVG/1.1/DTD/svg11.dtd">
<svg version="1.1" id="Layer_1" xmlns="http://www.w3.org/2000/svg" xmlns:xlink="http://www.w3.org/1999/xlink" x="0px" y="0px"
	 width="612px" height="612px" viewBox="0 0 612 612" enable-background="new 0 0 612 612" xml:space="preserve">
<g>
	<path fill-rule="evenodd" clip-rule="evenodd" fill="#003B71" d="M105.091,389.395h42.992v-24.617h-42.992v-37.949H80.187v151.504
		c0.052,6.578,1.287,12.652,3.705,18.328c2.422,5.643,5.782,10.629,10.029,14.879c4.301,4.25,9.245,7.611,14.927,9.977
		c5.633,2.426,11.711,3.611,18.187,3.664c3.061,0,6.221-0.342,9.532-1.031c3.315-0.75,7.12-1.986,11.516-3.703l-9.19-22.844
		c-3.164,1.188-5.637,1.988-7.359,2.381c-1.735,0.445-3.27,0.639-4.499,0.586c-4.105-0.051-7.81-1.037-11.073-3.012
		c-3.309-1.928-5.931-4.598-7.908-7.906c-1.925-3.359-2.918-7.113-2.963-11.318V389.395L105.091,389.395z M198.755,525.18
		c6.477-0.053,12.552-1.238,18.188-3.664c5.682-2.365,10.623-5.727,14.921-9.977c4.299-4.25,7.613-9.236,10.032-14.879
		c2.422-5.676,3.657-11.75,3.709-18.328v-75.896c-0.052-6.572-1.288-12.707-3.709-18.33c-2.418-5.643-5.732-10.629-10.032-14.873
		c-4.298-4.256-9.239-7.615-14.921-9.982c-5.636-2.426-11.711-3.613-18.188-3.664c-6.222-0.039-12.25,1.238-18.131,3.807
		c-5.879,2.617-11.661,6.77-17.446,12.498l17.495,17.504c3.211-3.367,6.326-5.793,9.286-7.172c2.919-1.381,5.885-2.076,8.796-2.025
		c4.105,0.051,7.812,1.045,11.121,3.012c3.261,1.93,5.877,4.598,7.854,7.906c1.929,3.361,2.917,7.115,2.964,11.32v5.629
		c-3.258-1.779-6.717-3.16-10.424-4.146c-3.653-0.986-7.51-1.482-11.516-1.482c-6.469,0.045-12.546,1.289-18.181,3.701
		c-5.689,2.424-10.628,5.732-14.926,10.035c-4.247,4.295-7.608,9.236-10.032,14.924c-2.42,5.631-3.653,11.713-3.702,18.182v29.055
		c0.049,6.578,1.282,12.652,3.702,18.328c2.424,5.643,5.785,10.629,10.032,14.879c4.297,4.25,9.237,7.611,14.926,9.977
		C186.209,523.941,192.287,525.127,198.755,525.18L198.755,525.18z M220.695,449.277v29.055c-0.047,4.205-1.036,7.959-2.964,11.318
		c-1.977,3.309-4.593,5.979-7.854,7.906c-3.309,1.975-7.015,2.961-11.121,3.012c-4.003-0.051-7.657-1.082-10.966-3.068
		c-3.313-1.969-5.93-4.631-7.908-7.998c-1.977-3.359-3.019-7.068-3.064-11.17v-29.055c0.045-4.104,1.087-7.805,3.064-11.113
		c1.978-3.262,4.595-5.881,7.908-7.861c3.309-1.928,6.962-2.908,10.966-2.961c4.105,0.053,7.812,1.033,11.121,2.961
		c3.261,1.98,5.877,4.6,7.854,7.861C219.659,441.473,220.647,445.174,220.695,449.277L220.695,449.277z M310.212,525.18
		c6.475-0.053,12.55-1.238,18.185-3.664c5.682-2.365,10.621-5.727,14.922-9.977c4.304-4.25,7.604-9.236,10.03-14.879
		c2.426-5.676,3.663-11.75,3.708-18.328v-75.896c-0.045-6.572-1.282-12.707-3.708-18.33c-2.426-5.643-5.727-10.629-10.03-14.873
		c-4.301-4.256-9.24-7.615-14.922-9.982c-5.635-2.426-11.71-3.613-18.185-3.664c-6.476,0.051-12.552,1.238-18.188,3.664
		c-5.682,2.367-10.621,5.727-14.92,9.982c-4.247,4.244-7.606,9.23-10.032,14.873c-2.421,5.623-3.653,11.758-3.706,18.33v171.07
		h24.902v-53.963c3.264,1.781,6.725,3.166,10.429,4.154C302.357,524.691,306.207,525.18,310.212,525.18L310.212,525.18z
		 M332.155,402.436v75.896c-0.051,4.205-1.045,7.959-2.97,11.318c-1.976,3.309-4.592,5.979-7.855,7.906
		c-3.311,1.975-7.017,2.961-11.118,3.012c-4.102-0.051-7.812-1.037-11.068-3.012c-3.314-1.928-5.93-4.598-7.907-7.906
		c-1.928-3.359-2.917-7.113-2.97-11.318v-75.896c0.053-4.205,1.042-7.959,2.97-11.32c1.977-3.309,4.593-5.977,7.907-7.906
		c3.256-1.967,6.966-2.961,11.068-3.012c4.102,0.051,7.808,1.045,11.118,3.012c3.264,1.93,5.88,4.598,7.855,7.906
		C331.11,394.477,332.104,398.23,332.155,402.436L332.155,402.436z M394.985,459.654h68.784v-57.219
		c-0.053-6.572-1.232-12.707-3.657-18.33c-2.373-5.643-5.682-10.629-9.933-14.873c-4.257-4.256-9.189-7.615-14.826-9.982
		c-5.585-2.426-11.668-3.613-18.13-3.664c-6.577,0.051-12.654,1.238-18.342,3.664c-5.624,2.367-10.623,5.727-14.874,9.982
		c-4.242,4.244-7.603,9.23-9.977,14.873c-2.373,5.623-3.604,11.758-3.655,18.33v75.896c0.051,6.578,1.282,12.652,3.655,18.328
		c2.374,5.643,5.734,10.629,9.977,14.879c4.251,4.25,9.25,7.611,14.874,9.977c5.688,2.426,11.765,3.611,18.342,3.664
		c6.225,0.047,12.254-1.238,18.13-3.805c5.887-2.619,11.659-6.773,17.444-12.5l-17.489-17.49c-3.367,3.354-6.477,5.727-9.392,7.158
		c-2.862,1.383-5.785,2.078-8.693,2.025c-4.102-0.051-7.812-1.082-11.171-3.068c-3.359-1.969-6.03-4.631-8.009-7.998
		c-1.974-3.359-3.006-7.068-3.059-11.17V459.654L394.985,459.654z M439.158,402.436v32.316h-44.173v-32.316
		c0.053-4.102,1.085-7.805,3.059-11.172c1.979-3.354,4.649-6.023,8.009-7.996c3.359-1.986,7.069-3.02,11.171-3.07
		c3.998,0.051,7.655,1.084,10.965,3.07c3.313,1.973,5.932,4.643,7.905,7.996C438.067,394.631,439.112,398.334,439.158,402.436
		L439.158,402.436z M525.11,525.18c5.493,0,10.729-0.941,15.864-2.863c5.096-1.934,9.841-4.799,14.234-8.605
		c4.443-3.803,8.3-8.594,11.712-14.328l-21.045-12.449c-2.974,4.748-6.185,8.205-9.597,10.371
		c-3.456,2.227-7.158,3.316-11.169,3.264c-4-0.051-7.657-1.082-10.965-3.068c-3.303-1.969-5.928-4.631-7.907-7.998
		c-1.974-3.359-3.011-7.068-3.063-11.17v-75.896c0.053-4.102,1.09-7.805,3.063-11.172c1.979-3.354,4.604-6.023,7.907-7.996
		c3.308-1.986,6.965-3.02,10.965-3.07c4.011-0.051,7.713,1.045,11.169,3.264c3.412,2.174,6.623,5.623,9.597,10.369l21.045-12.447
		c-3.412-5.727-7.269-10.523-11.712-14.33c-4.394-3.805-9.139-6.668-14.234-8.596c-5.135-1.93-10.371-2.871-15.864-2.871
		c-6.469,0.051-12.546,1.238-18.125,3.664c-5.636,2.367-10.575,5.727-14.826,9.982c-4.25,4.244-7.564,9.23-9.939,14.873
		c-2.41,5.623-3.597,11.758-3.655,18.33v75.896c0.059,6.578,1.245,12.652,3.655,18.328c2.375,5.643,5.689,10.629,9.939,14.879
		c4.251,4.25,9.19,7.611,14.826,9.977C512.564,523.941,518.642,525.127,525.11,525.18z"/>
	<g>
		<path fill-rule="evenodd" clip-rule="evenodd" fill="#003B71" d="M351.574,38.495c71.428,0,129.356,57.929,129.356,129.352
			c0,71.431-57.929,129.353-129.356,129.353c-11.163,0-22.001-1.419-32.338-4.073c55.246-14.23,96.2-64.042,96.988-123.538
			c0.018-0.581,0.025-1.151,0.025-1.742c0-35.71-28.958-64.678-64.676-64.678c-35.709,0-64.673,28.968-64.673,64.678
			c0,23.934,13.01,44.833,32.335,56.013c-9.511,5.511-20.553,8.662-32.335,8.662c-35.654,0-64.576-28.862-64.672-64.491v-0.184
			C222.229,96.423,280.151,38.495,351.574,38.495z"/>
		<path fill-rule="evenodd" clip-rule="evenodd" fill="#003B71" d="M284.71,47.146c-65.651,1.171-118.537,54.772-118.537,120.701
			c0,66.668,54.06,120.727,120.729,120.727c11.427,0,22.481-1.586,32.956-4.553l0.422-0.129c0.748-0.212,1.494-0.432,2.234-0.664
			l0.762-0.238c0.684-0.213,1.363-0.433,2.044-0.665l0.535-0.174c0.813-0.276,1.618-0.561,2.426-0.857l0.187-0.064
			c17.479-6.415,33.047-16.746,45.675-29.932l0.555-0.6c0.387-0.417,0.773-0.829,1.161-1.246c0.336-0.367,0.67-0.734,1.005-1.105
			l0.575-0.654c0.412-0.468,0.831-0.939,1.232-1.419l0.191-0.219c17.736-20.884,28.359-47.729,28.739-76.575l0.007-0.112
			l0.006-0.294v-0.019v-0.064v-0.035v-0.02v-0.029v-0.015v-0.029v-0.055v-0.036v-0.019v-0.029l0.014-0.423v-0.029v-0.016v-0.148
			v-0.02v-0.025v-0.019v-0.029v-0.026v-0.019v-0.029v-0.016v-0.075c0-30.947-25.101-56.051-56.053-56.051
			c-5.229,0-10.298,0.718-15.111,2.063c14.589,13.401,23.735,32.624,23.735,53.987c0,27.333-14.977,51.177-37.163,63.782
			l-0.531,0.297l-0.076,0.045c-1.01,0.551-2.029,1.086-3.064,1.603l-0.074,0.039c-3.553,1.75-7.265,3.224-11.112,4.395l-0.573,0.164
			c-0.41,0.12-0.82,0.24-1.236,0.352l-0.646,0.174c-0.335,0.093-0.666,0.174-1.001,0.257l-0.581,0.149h-0.016
			c-1.074,0.257-2.155,0.497-3.247,0.709l-0.352,0.064c-0.461,0.084-0.92,0.165-1.381,0.249l-0.513,0.083l-0.934,0.146
			c-0.419,0.058-0.842,0.122-1.265,0.178l-0.452,0.054c-0.39,0.045-0.786,0.093-1.183,0.139l-0.647,0.064
			c-0.494,0.045-0.987,0.091-1.48,0.13l-0.236,0.019c-0.548,0.044-1.096,0.071-1.647,0.11l-0.194,0.009
			c-0.577,0.026-1.165,0.045-1.738,0.065h-0.062h-0.082c-0.606,0.016-1.208,0.025-1.81,0.025c-0.633,0-1.259-0.01-1.885-0.025
			h-0.005c-0.626-0.01-1.248-0.039-1.87-0.074h-0.009c-0.624-0.029-1.235-0.065-1.852-0.11l-0.016-0.01
			c-0.615-0.048-1.229-0.093-1.838-0.158h-0.016c-0.61-0.064-1.212-0.139-1.816-0.213h-0.025c-0.603-0.071-1.199-0.165-1.8-0.258
			h-0.021c-0.601-0.091-1.197-0.184-1.783-0.293l-0.033-0.01c-0.59-0.101-1.181-0.213-1.767-0.333
			c-0.307-0.063-0.617-0.138-0.92-0.203c-0.287-0.063-0.573-0.119-0.854-0.183l-0.035-0.01c-1.185-0.274-2.351-0.581-3.512-0.902
			c-0.567-0.155-1.128-0.332-1.687-0.506l-0.045-0.01c-0.557-0.174-1.112-0.349-1.663-0.542c-1.128-0.381-2.244-0.784-3.351-1.219
			l-0.013-0.01c-6.582-2.59-12.697-6.107-18.193-10.393l-0.171-0.129c-1.3-1.016-2.558-2.074-3.784-3.179l-0.247-0.222
			c-1.678-1.52-3.291-3.125-4.825-4.792l-0.138-0.155c-1.181-1.293-2.309-2.628-3.396-4.001l-0.003-0.01
			c-8.343-10.57-13.834-23.499-15.318-37.625v-0.01c-0.06-0.544-0.105-1.096-0.151-1.641l-0.023-0.249
			c-0.038-0.525-0.072-1.051-0.102-1.577l-0.02-0.274c-0.033-0.59-0.054-1.17-0.071-1.761v-0.104
			c-0.02-0.561-0.029-1.131-0.033-1.702v-0.168l-0.007-0.239C213.602,115.926,242.31,70.693,284.71,47.146z"/>
	</g>
</g>
</svg>
